<?xml version="1.0" encoding="utf-8"?>
<!-- Generator: Adobe Illustrator 25.3.1, SVG Export Plug-In . SVG Version: 6.00 Build 0)  -->
<svg version="1.1" id="图层_1" xmlns="http://www.w3.org/2000/svg" xmlns:xlink="http://www.w3.org/1999/xlink" x="0px" y="0px"
	 viewBox="0 0 16 16" style="enable-background:new 0 0 16 16;" xml:space="preserve">
<style type="text/css">
	.st0{filter:url(#Adobe_OpacityMaskFilter);}
	.st1{fill-rule:evenodd;clip-rule:evenodd;fill:#FFFFFF;}
	.st2{mask:url(#mask-3_1_);fill-rule:evenodd;clip-rule:evenodd;fill:#292940;}
</style>
<g id="页面-1">
	<g id="桌面端-HD" transform="translate(-507.000000, -34.000000)">
		<g id="编组" transform="translate(507.000000, 31.000000)">
			<g transform="translate(0.000000, 3.000000)">
				<g id="Clip-2">
				</g>
				<defs>
					<filter id="Adobe_OpacityMaskFilter" filterUnits="userSpaceOnUse" x="3" y="3" width="10" height="10">
						<feColorMatrix  type="matrix" values="1 0 0 0 0  0 1 0 0 0  0 0 1 0 0  0 0 0 1 0"/>
					</filter>
				</defs>
				<mask maskUnits="userSpaceOnUse" x="3" y="3" width="10" height="10" id="mask-3_1_">
					<g class="st0">
						<polygon id="path-2_1_" class="st1" points="3,3 13,3 13,13 3,13 						"/>
					</g>
				</mask>
				<path id="Fill-1" class="st2" d="M12.3,6.1L8.6,3.2c-0.3-0.3-0.8-0.3-1.2,0L3.7,6.1C3.3,6.5,3,7,3,7.6V12c0,0.5,0.4,1,1,1h2.2
					V9.4C6.2,8.6,6.8,8,7.6,8h0.8c0.8,0,1.4,0.6,1.4,1.4V13H12c0.5,0,1-0.4,1-1V7.6C13,7,12.7,6.5,12.3,6.1"/>
			</g>
		</g>
	</g>
</g>
</svg>
