<?xml version="1.0" encoding="utf-8"?>
<!-- Generator: Adobe Illustrator 25.3.1, SVG Export Plug-In . SVG Version: 6.00 Build 0)  -->
<svg version="1.1" id="图层_1" xmlns="http://www.w3.org/2000/svg" xmlns:xlink="http://www.w3.org/1999/xlink" x="0px" y="0px"
	 viewBox="0 0 200.2 200" style="enable-background:new 0 0 200.2 200;" xml:space="preserve">
<style type="text/css">
	.st0{fill:#3A4365;stroke:#3A4365;stroke-width:5;stroke-miterlimit:10;}
	.st1{fill:#FFC138;stroke:#FFC138;stroke-width:5;stroke-miterlimit:10;}
</style>
<path class="st0" d="M99.5,14.9c11.5,0,22.7,2.2,33.2,6.7c10.1,4.3,19.2,10.4,27,18.2L160,40l0.3,0.2l0.2,0.1
	c7.6,7.8,13.5,16.8,17.7,26.8c4.4,10.5,6.6,21.5,6.6,32.9c0,9-1.4,17.9-4.2,26.5l0,0l0,0c-2.4,7.6-6.1,15-10.9,21.9l-2.2,3.1v3.8
	v29.8h-68c-11.6,0-22.7-2.2-33.2-6.7c-10.1-4.3-19.2-10.4-26.9-18.2l-3-3c-6.5-7.2-11.7-15.3-15.5-24.2c-4.5-10.5-6.7-21.7-6.7-33.2
	c0-11.5,2.3-22.6,6.7-33.1c4.3-10.1,10.5-19.3,18.4-27.1l3-3c7.1-6.4,15.2-11.6,24-15.3C76.8,17.1,88,14.9,99.5,14.9 M99.5,2.7
	c-26.9,0-51.3,10.9-68.9,28.5l0.1,0.1c-17.7,17.6-28.7,42-28.7,68.8c0,26.9,11,51.3,28.6,68.9h0.1c17.5,17.7,41.9,28.5,68.8,28.5
	H172h0.2c4.1,0,7.5-3.3,7.5-7.5l0-34.5c5.3-7.7,9.6-16.1,12.5-25.2c3.1-9.5,4.8-19.7,4.8-30.2c0-26.7-10.8-50.8-28.1-68.5l-0.5-0.4
	C150.8,13.6,126.5,2.7,99.5,2.7L99.5,2.7z"/>
<path class="st1" d="M143.1,70.4H57.9c-2.9,0-5.3-2.7-5.3-6.1s2.4-6.1,5.3-6.1h85.1c2.9,0,5.3,2.7,5.3,6.1S146,70.4,143.1,70.4z"/>
<path class="st1" d="M143.1,107H57.9c-2.9,0-5.3-2.7-5.3-6.1s2.4-6.1,5.3-6.1h85.1c2.9,0,5.3,2.7,5.3,6.1S146,107,143.1,107z"/>
<path class="st1" d="M143.1,143.5H57.9c-2.9,0-5.3-2.7-5.3-6.1s2.4-6.1,5.3-6.1h85.1c2.9,0,5.3,2.7,5.3,6.1S146,143.5,143.1,143.5z"
	/>
</svg>
