<?xml version="1.0" encoding="utf-8"?>
<!-- Generator: Adobe Illustrator 25.3.1, SVG Export Plug-In . SVG Version: 6.00 Build 0)  -->
<svg version="1.1" id="图层_1" xmlns="http://www.w3.org/2000/svg" xmlns:xlink="http://www.w3.org/1999/xlink" x="0px" y="0px"
	 viewBox="0 0 200 200" style="enable-background:new 0 0 200 200;" xml:space="preserve">
<style type="text/css">
	.st0{fill:#3A4365;}
	.st1{fill:#FFC138;}
</style>
<path class="st0" d="M31.7,21.9C37,7.3,54.9,1.1,71.2,7l94.1,34.3h7.1c15.2,0,27.5,12.3,27.5,27.5v27.5c0,4.1-3.4,7.5-7.5,7.5
	c-8.3,0-15,6.7-15,15s6.7,15,15,15c4.1,0,7.5,3.4,7.5,7.5v27.5c0,15.2-12.3,27.5-27.5,27.5h-145C12.3,196.3,0,184,0,168.8v-27.5
	c0-4.1,3.4-7.5,7.5-7.5c8.3,0,15-6.7,15-15s-6.7-15-15-15c-4.1,0-7.5-3.4-7.5-7.5V68.8c0-14.2,10.8-25.9,24.6-27.3L31.7,21.9z
	 M172.5,56.3h-9.7l0,0l-0.1,0l-135.2,0c-6.9,0-12.5,5.6-12.5,12.5l0,0v20.9c12.9,3.3,22.5,15.1,22.5,29.1s-9.6,25.7-22.5,29.1v20.9
	c0,6.9,5.6,12.5,12.5,12.5h145c6.9,0,12.5-5.6,12.5-12.5v-20.9c-12.9-3.3-22.5-15.1-22.5-29.1s9.6-25.7,22.5-29.1V68.8
	C185,61.9,179.4,56.3,172.5,56.3L172.5,56.3z M66.1,21.1C57,17.8,48,20.9,45.8,27l-5.2,14.3h80.9L66.1,21.1z"/>
<path class="st1" d="M130,127.9c4.1,0,7.5,3.4,7.5,7.5s-3.4,7.5-7.5,7.5H70c-4.1,0-7.5-3.4-7.5-7.5s3.4-7.5,7.5-7.5H130z"/>
<path class="st1" d="M130,92.9c4.1,0,7.5,3.4,7.5,7.5s-3.4,7.5-7.5,7.5H70c-4.1,0-7.5-3.4-7.5-7.5s3.4-7.5,7.5-7.5H130z"/>
</svg>
