<?xml version="1.0" encoding="utf-8"?>
<!-- Generator: Adobe Illustrator 25.3.1, SVG Export Plug-In . SVG Version: 6.00 Build 0)  -->
<svg version="1.1" id="图层_1" xmlns="http://www.w3.org/2000/svg" xmlns:xlink="http://www.w3.org/1999/xlink" x="0px" y="0px"
	 viewBox="0 0 200 200" style="enable-background:new 0 0 200 200;" xml:space="preserve">
<style type="text/css">
	.st0{fill:#3A4365;}
	.st1{fill:#FFC138;}
</style>
<path class="st0" d="M172.1,105.4v74.3c0,4.2-3.4,7.6-7.6,7.6s-7.6-3.4-7.6-7.6l0-74.3c0-4.2,3.4-7.6,7.6-7.6
	C168.7,97.8,172.1,101.2,172.1,105.4z M164.5,34.4c4.2,0,7.6-3.4,7.6-7.6l0-6.5c0-4.2-3.4-7.6-7.6-7.6s-7.6,3.4-7.6,7.6v6.5
	C156.9,31,160.3,34.4,164.5,34.4z M100,167.7c-4.2,0-7.6,3.4-7.6,7.6v4.4c0,4.2,3.4,7.6,7.6,7.6s7.6-3.4,7.6-7.6v-4.4
	C107.6,171.1,104.2,167.7,100,167.7z M100,105.1c4.2,0,7.6-3.4,7.6-7.6V20.3c0-4.2-3.4-7.6-7.6-7.6s-7.6,3.4-7.6,7.6v77.2
	C92.4,101.7,95.8,105.1,100,105.1z M35.5,132.8c-4.2,0-7.6,3.4-7.6,7.6v39.3c0,4.2,3.4,7.6,7.6,7.6s7.6-3.4,7.6-7.6l0-39.3
	C43.1,136.2,39.7,132.8,35.5,132.8z M35.5,67.6c4.2,0,7.6-3.4,7.6-7.6V20.3c0-4.2-3.4-7.6-7.6-7.6s-7.6,3.4-7.6,7.6V60
	C27.9,64.2,31.3,67.6,35.5,67.6z"/>
<path class="st1" d="M35.4,77.2c-12.5,0-22.6,10.2-22.6,22.8s10.2,22.8,22.6,22.8c12.5,0,22.6-10.2,22.6-22.8S47.9,77.2,35.4,77.2z
	 M35.4,107.7c-4.1,0-7.5-3.4-7.5-7.7s3.3-7.7,7.5-7.7s7.5,3.4,7.5,7.7S39.5,107.7,35.4,107.7z"/>
<path class="st1" d="M100,114.5c-12.5,0-22.6,10.2-22.6,22.8c0,12.6,10.2,22.8,22.6,22.8c12.5,0,22.6-10.2,22.6-22.8
	C122.6,124.7,112.5,114.5,100,114.5z M100,145c-4.1,0-7.5-3.4-7.5-7.7c0-4.2,3.3-7.7,7.5-7.7c4.1,0,7.5,3.4,7.5,7.7
	C107.5,141.5,104.1,145,100,145z"/>
<path class="st1" d="M164.6,44.2c-12.5,0-22.6,10.2-22.6,22.8c0,12.6,10.2,22.8,22.6,22.8c12.5,0,22.6-10.2,22.6-22.8
	C187.2,54.5,177.1,44.2,164.6,44.2z M164.6,74.7c-4.1,0-7.5-3.4-7.5-7.7s3.3-7.7,7.5-7.7s7.5,3.4,7.5,7.7
	C172.1,71.3,168.7,74.7,164.6,74.7z"/>
</svg>
