<svg xmlns="http://www.w3.org/2000/svg" viewBox="0 0 50.13 40.14"><defs><style>.cls-1{fill:#394162;stroke:#384060;stroke-width:2px;}.cls-1,.cls-2{stroke-miterlimit:10;}.cls-2{fill:#f6bc3d;stroke:#f6bc3d;stroke-linecap:round;stroke-width:5px;}.cls-3{fill:none;}</style></defs><g id="图层_2" data-name="图层 2"><g id="图层_1-2" data-name="图层 1"><path class="cls-1" d="M39.41,37.42a1.54,1.54,0,0,0,.51,1.19,1.57,1.57,0,0,0,1.19.53,6.06,6.06,0,0,0,2-1.15,6.27,6.27,0,0,0,2.72-5.48V24.68a3.86,3.86,0,0,1,.74-2.25A6.11,6.11,0,0,1,48,21.38c.74-.47,1.11-.89,1.11-1.24s-.37-.79-1.11-1.33a7.79,7.79,0,0,1-1.47-1.2,3.7,3.7,0,0,1-.74-2.15V7.68a7,7,0,0,0-3.5-6.11A2.62,2.62,0,0,0,41.11,1c-1.13,0-1.7.59-1.7,1.77,0,.31.29.68.88,1.09A11,11,0,0,1,41.9,5.15a3.85,3.85,0,0,1,.87,2.53v7.78a6.16,6.16,0,0,0,2.17,4.68,5.67,5.67,0,0,0-2.17,4.54v7.83A3.7,3.7,0,0,1,41.9,35a7.37,7.37,0,0,1-1.61,1.29C39.7,36.74,39.41,37.1,39.41,37.42Z"/><path class="cls-1" d="M11,37.42a1.57,1.57,0,0,1-.5,1.19,1.59,1.59,0,0,1-1.2.53,6.06,6.06,0,0,1-2-1.15,6.29,6.29,0,0,1-2.72-5.48V24.68a3.79,3.79,0,0,0-.74-2.25,6.11,6.11,0,0,0-1.47-1.05c-.74-.47-1.1-.89-1.1-1.24s.36-.79,1.1-1.33a7.79,7.79,0,0,0,1.47-1.2,3.63,3.63,0,0,0,.74-2.15V7.68a7,7,0,0,1,3.5-6.11A2.62,2.62,0,0,1,9.26,1C10.4,1,11,1.59,11,2.77c0,.31-.29.68-.87,1.09A10,10,0,0,0,8.48,5.15,3.8,3.8,0,0,0,7.6,7.68v7.78a6.18,6.18,0,0,1-2.16,4.68A5.69,5.69,0,0,1,7.6,24.68v7.83A3.65,3.65,0,0,0,8.48,35a6.89,6.89,0,0,0,1.61,1.29C10.67,36.74,11,37.1,11,37.42Z"/><line class="cls-2" x1="34.32" y1="2.71" x2="16.81" y2="37.17"/><rect class="cls-3" y="0.01" width="50" height="40"/></g></g></svg>