<?xml version="1.0" encoding="utf-8"?>
<!-- Generator: Adobe Illustrator 25.3.1, SVG Export Plug-In . SVG Version: 6.00 Build 0)  -->
<svg version="1.1" id="图层_1" xmlns="http://www.w3.org/2000/svg" xmlns:xlink="http://www.w3.org/1999/xlink" x="0px" y="0px"
	 viewBox="0 0 200 200" style="enable-background:new 0 0 200 200;" xml:space="preserve">
<style type="text/css">
	.st0{fill:#3A4365;}
	.st1{fill:none;stroke:#FFC138;stroke-width:10;stroke-linecap:round;stroke-miterlimit:10;}
</style>
<path class="st0" d="M41.1,200h76.4c16.3,0,24-8.3,24-24.7v-14.6h15.4c16.2,0,24.3-8.3,24.3-24.7V70.1c0-9.7-1.9-15.8-7.8-21.9
	L133.7,7.8C128,2,121.4,0,113,0H80.8C64.6,0,56.4,8.3,56.4,24.7v14.6H41.1c-16.2,0-24.4,8.3-24.4,24.7v111.3
	C16.7,191.8,24.9,200,41.1,200z M141.5,111.8c0-10.1-1.2-14.5-7.5-20.9L90.7,46.8c-6-6.1-10.9-7.5-19.8-7.5h-1.7V24.9
	c0-7.7,4.3-12.2,12.4-12.2h33.2v41.2c0,9.1,4.5,13.5,13.5,13.5h40.4v68.6c0,7.8-4.2,12.2-12.4,12.2h-14.6L141.5,111.8z M130,55.9
	c-2.8,0-3.9-1.2-3.9-3.9V15.2l40,40.7L130,55.9z M41.7,187.3c-8.1,0-12.4-4.4-12.4-12.3V64.1c0-7.7,4.2-12.2,12.4-12.2h27.3v45.6
	c0,9.9,5,14.8,14.8,14.8h44.9V175c0,7.9-4.3,12.3-12.4,12.3L41.7,187.3z M85.4,100.5c-3.1,0-4.4-1.3-4.4-4.3V54.4l45.4,46.1
	L85.4,100.5z"/>
<line class="st1" x1="46.9" y1="135.4" x2="110.3" y2="135.4"/>
<line class="st1" x1="46.9" y1="161.6" x2="110.3" y2="161.6"/>
</svg>
