<?xml version="1.0" encoding="utf-8"?>
<!-- Generator: Adobe Illustrator 25.3.1, SVG Export Plug-In . SVG Version: 6.00 Build 0)  -->
<svg version="1.1" id="图层_1" xmlns="http://www.w3.org/2000/svg" xmlns:xlink="http://www.w3.org/1999/xlink" x="0px" y="0px"
	 viewBox="0 0 168 168" style="enable-background:new 0 0 168 168;" xml:space="preserve">
<style type="text/css">
	.st0{fill:#292940;}
</style>
<g id="Page-1">
	<g id="reflash">
		<g transform="translate(0.666667, 0.666610)">
			<path id="Shape" class="st0" d="M16.7,83.3c0,4.6-3.7,8.3-8.3,8.3S0,87.9,0,83.3C0,37.3,37.3,0,83.3,0
				c26.2,0,50.9,12.3,66.7,33.3V25c0-4.6,3.7-8.3,8.3-8.3s8.3,3.7,8.3,8.3v33.3c0,4.6-3.7,8.3-8.3,8.3H125c-4.6,0-8.3-3.7-8.3-8.3
				s3.7-8.3,8.3-8.3h16.1c-15.1-26.1-45.8-38.9-75-31.1S16.7,53.1,16.7,83.3L16.7,83.3z M150,83.3c0-4.6,3.7-8.3,8.3-8.3
				s8.3,3.7,8.3,8.3c0,46-37.3,83.3-83.3,83.3c-26.2,0-50.9-12.3-66.7-33.3v8.3c0,4.6-3.7,8.3-8.3,8.3S0,146.3,0,141.7v-33.3
				c0-4.6,3.7-8.3,8.3-8.3h33.3c4.6,0,8.3,3.7,8.3,8.3s-3.7,8.3-8.3,8.3H25.6c15.1,26.1,45.8,38.9,75,31.1
				C129.7,139.9,150,113.5,150,83.3L150,83.3z"/>
		</g>
	</g>
</g>
</svg>
