<?xml version="1.0" encoding="utf-8"?>
<!-- Generator: Adobe Illustrator 25.3.1, SVG Export Plug-In . SVG Version: 6.00 Build 0)  -->
<svg version="1.1" id="图层_1" xmlns="http://www.w3.org/2000/svg" xmlns:xlink="http://www.w3.org/1999/xlink" x="0px" y="0px"
	 viewBox="0 0 200 200" style="enable-background:new 0 0 200 200;" xml:space="preserve">
<style type="text/css">
	.st0{fill:#292940;}
</style>
<path class="st0" d="M197.9,80.5c-1.2-6.3-5-10.3-10-10.3h-0.9c-13.3,0-24.2-10.8-24.2-24.2c0-4.2,2-9,2.1-9.2
	c2.5-5.5,0.6-12.3-4.4-15.8L135.6,7l-0.4-0.2c-5-2.2-11.9-0.8-15.6,3.1c-2.7,2.8-12,10.7-19.1,10.7c-7.2,0-16.5-8.1-19.2-10.9
	c-3.7-3.9-10.5-5.4-15.6-3.2L39.8,20.7L39.4,21c-5,3.5-6.9,10.2-4.4,15.8c0.1,0.2,2.1,5,2.1,9.2c0,13.3-10.8,24.2-24.2,24.2h-1
	c-4.8,0-8.6,4.1-9.8,10.3C2,80.9,0,91.5,0,100.1c0,8.5,2,19.1,2.1,19.6c1.2,6.3,5,10.3,10,10.3h0.9c13.3,0,24.2,10.8,24.2,24.2
	c0,4.2-2,9-2.1,9.2c-2.5,5.5-0.6,12.3,4.4,15.8l24.5,13.8l0.4,0.2c5.1,2.2,11.9,0.8,15.7-3.3c3.4-3.7,12.7-11.4,19.5-11.4
	c7.4,0,16.9,8.6,19.7,11.6c2.5,2.8,6.4,4.4,10.4,4.4c1.9,0,3.6-0.4,5.2-1.1l25.4-14l0.4-0.2c5-3.5,6.9-10.2,4.4-15.8
	c-0.1-0.2-2.1-5-2.1-9.2c0-13.3,10.8-24.2,24.2-24.2h1c4.8,0,8.6-4.1,9.8-10.3c0.1-0.4,2.1-11.1,2.1-19.6
	C200,91.5,198,80.9,197.9,80.5 M185.5,100.1c0,5.5-1.1,12.6-1.6,15.5c-20,1.6-35.5,18.4-35.5,38.6c0,5.7,1.8,11.2,2.8,13.7l-21.7,12
	c-1.1-1.1-4.2-4.3-8.5-7.5c-7.5-5.6-14.8-8.4-21.5-8.4c-6.6,0-13.8,2.8-21.3,8.3c-4.3,3.1-7.4,6.2-8.5,7.4l-20.9-11.7
	c1-2.6,2.8-8,2.8-13.7c0-20.2-15.5-36.9-35.5-38.6c-0.5-3-1.6-10-1.6-15.5c0-5.5,1.1-12.6,1.6-15.6c20-1.6,35.5-18.4,35.5-38.6
	c0-5.7-1.8-11.2-2.8-13.7l22.2-12.2c1,1,4.1,4.1,8.5,7.2c7.4,5.3,14.4,7.9,21,7.9c6.5,0,13.4-2.6,20.8-7.8c4.4-3.1,7.5-6.1,8.5-7
	l21.4,11.9c-1,2.5-2.8,8-2.8,13.7c0,20.2,15.5,36.9,35.5,38.6C184.4,87.5,185.5,94.6,185.5,100.1"/>
<path class="st0" d="M99.6,64.3c-19.6,0-35.6,16-35.6,35.6c0,19.6,16,35.6,35.6,35.6c19.6,0,35.6-16,35.6-35.6
	C135.1,80.3,119.2,64.3,99.6,64.3 M120.6,99.9c0,11.6-9.5,21.1-21.1,21.1c-11.6,0-21.1-9.5-21.1-21.1c0-11.6,9.4-21.1,21.1-21.1
	C111.2,78.9,120.6,88.3,120.6,99.9"/>
</svg>
